<svg width="11" height="22" viewBox="0 0 11 22" fill="none" xmlns="http://www.w3.org/2000/svg">
<path fill-rule="evenodd" clip-rule="evenodd" d="M8.3723 4.28717C8.99496 4.26591 9.61761 4.28137 10.2422 4.28137H10.4989V1.00984C10.1655 0.976975 9.81686 0.928637 9.47009 0.911235C8.83019 0.884165 8.1903 0.851295 7.5504 0.866764C6.57523 0.888033 5.64987 1.12779 4.84329 1.70978C3.91793 2.38265 3.41023 3.32621 3.21673 4.43992C3.13626 4.9001 3.11519 5.37768 3.10369 5.84366C3.08453 6.5784 3.09986 7.31121 3.10178 8.04595V8.32051H0V11.9749H3.08262V21.1572H6.8492V11.9903H9.92223C10.0793 10.7742 10.2345 9.57151 10.3955 8.31858C10.1483 8.31858 9.92607 8.31665 9.70383 8.31858C8.83019 8.32245 6.82429 8.31858 6.82429 8.31858C6.82429 8.31858 6.83387 6.5088 6.85494 5.72379C6.8856 4.64681 7.51783 4.31811 8.3723 4.28717Z" fill="white" fill-opacity="0.8"/>
</svg>
