<svg width="23" height="23" viewBox="0 0 23 23" fill="none" xmlns="http://www.w3.org/2000/svg">
<path d="M17.5512 4.24411C16.7996 4.24411 16.2028 4.85199 16.2028 5.5925C16.2028 6.34406 16.8107 6.94089 17.5512 6.94089C18.2917 6.94089 18.8996 6.33301 18.8996 5.5925C18.8996 4.85199 18.2917 4.24411 17.5512 4.24411ZM11.5387 5.97934C8.41086 5.97934 5.85776 8.52138 5.85776 11.6603C5.85776 14.7991 8.3998 17.3412 11.5387 17.3412C14.6665 17.3412 17.2196 14.7991 17.2196 11.6603C17.2196 8.52138 14.6776 5.97934 11.5387 5.97934ZM11.5387 15.2854C9.5382 15.2854 7.90244 13.6497 7.90244 11.6492C7.90244 9.64873 9.5382 8.01297 11.5387 8.01297C13.5392 8.01297 15.1749 9.64873 15.1749 11.6492C15.1749 13.6607 13.5502 15.2854 11.5387 15.2854ZM23 6.92984C23 3.10572 19.8943 0 16.0702 0H6.92984C3.10572 0 0 3.10572 0 6.92984V16.0702C0 19.8943 3.10572 23 6.92984 23H16.0702C19.8943 23 23 19.8943 23 16.0702V6.92984ZM20.8337 16.0702C20.8337 18.7006 18.7006 20.8227 16.0812 20.8227H6.94089C4.31043 20.8227 2.18837 18.6896 2.18837 16.0702V6.92984C2.18837 4.29937 4.32148 2.17732 6.94089 2.17732H16.0812C18.7117 2.17732 20.8337 4.31043 20.8337 6.92984V16.0702Z" fill="#D2D0DA"/>
</svg>
