<svg width="19" height="19" viewBox="0 0 19 19" fill="none" xmlns="http://www.w3.org/2000/svg">
<path fill-rule="evenodd" clip-rule="evenodd" d="M4.54274 2.53365C4.54274 1.31746 3.56182 0.325562 2.35291 0.325562C1.14209 0.325562 0.163086 1.31746 0.163086 2.53365C0.163086 3.75371 1.14209 4.74367 2.35291 4.74367C3.56182 4.74367 4.54274 3.75371 4.54274 2.53365ZM4.24218 18.6712H0.462193V6.41648H4.24218V18.6712ZM10.231 6.4156H6.61196V18.6703H10.3843V12.6087C10.3843 11.0097 10.6832 9.46478 12.6488 9.46478C14.5819 9.46478 14.6107 11.292 14.6107 12.7131V18.6703H18.3811V11.9494C18.3811 8.64883 17.676 6.11204 13.8558 6.11204C12.0185 6.11204 10.7866 7.12908 10.2808 8.09197H10.231V6.4156Z" fill="white" fill-opacity="0.8"/>
</svg>
