<svg width="21" height="18" viewBox="0 0 21 18" fill="none" xmlns="http://www.w3.org/2000/svg">
<path fill-rule="evenodd" clip-rule="evenodd" d="M6.42617 13.8419C4.23828 13.7654 2.87085 12.1866 2.51043 10.9046C3.11898 11.0211 3.71848 10.9993 4.31435 10.8518L4.37412 10.8226C3.18962 10.5458 2.27498 9.90844 1.64107 8.88137C1.21907 8.19847 1.01803 7.45001 1.02346 6.63054C1.61571 6.9474 2.23332 7.12587 2.89621 7.14225C2.00692 6.4976 1.40924 5.65445 1.16473 4.57456C0.922034 3.50014 1.07961 2.4767 1.61571 1.51154C3.89597 4.20853 6.77935 5.69087 10.2966 5.93307C10.2731 5.76554 10.2477 5.61985 10.2296 5.47052C10.1119 4.47441 10.3093 3.54567 10.8454 2.70252C11.5137 1.6463 12.4719 0.990722 13.6998 0.788584C15.1162 0.555489 16.3514 0.961585 17.3837 1.97045L17.6083 2.03783C18.4741 1.84662 19.2891 1.5334 20.057 1.08906L20.1132 1.06174L20.1403 1.05992C19.8071 2.04329 19.2003 2.80267 18.3382 3.36174C19.1533 3.27251 19.9321 3.05398 20.6819 2.72801L20.7 2.74622C20.5388 2.95929 20.383 3.17599 20.2146 3.38177C19.7691 3.93537 19.2565 4.42159 18.686 4.84408L18.6153 4.97702C18.6389 5.60528 18.6153 6.23173 18.5375 6.85453C18.3745 8.17115 18.0104 9.42404 17.4526 10.6241C16.8766 11.8606 16.125 12.9787 15.1777 13.9603C13.573 15.6266 11.6423 16.7028 9.39287 17.2018C8.62131 17.373 7.83889 17.4585 7.04741 17.4804C4.62225 17.5514 2.3764 16.945 0.313481 15.663L0.213867 15.5992C1.68272 15.7577 3.08095 15.5683 4.42483 15.0165C5.13843 14.7215 5.79951 14.3354 6.42617 13.8419Z" fill="white" fill-opacity="0.8"/>
</svg>
